# xmcd CD database file
#
# Track frame offsets:
#	150
#	31439
#	63559
#	95490
#	135730
#	176490
#	215812
#	247733
#
# Disc length: 3651 seconds
#
# Revision: 0
# Processed by: cddbd v1.5.1PL0 Copyright (c) Steve Scherf et al.
# Submitted via: CDex 1.51
#
DISCID=700e4108
DTITLE=Conrad Herwing Quintet - Osteology
DYEAR=1999
DGENRE=Jazz
TTITLE0=Syeeda's Song Flute
TTITLE1=Kenny K.
TTITLE2=Devil May Care
TTITLE3=First Born
TTITLE4=Fire
TTITLE5=It Ain't Necessarily So
TTITLE6=You Don't Know What Love Is
TTITLE7=Osteology
EXTD=YEAR: 1999
EXTT0=
EXTT1=
EXTT2=
EXTT3=
EXTT4=
EXTT5=
EXTT6=
EXTT7=
PLAYORDER=
